<svg width="1127" height="20" viewBox="0 0 1127 20" fill="none" xmlns="http://www.w3.org/2000/svg">
<path d="M6.05859 7.36133C6.05859 8.63086 5.8418 9.57422 5.4082 10.1914C4.97461 10.8086 4.29688 11.1172 3.375 11.1172C2.46484 11.1172 1.79102 10.8164 1.35352 10.2148C0.916016 9.60938 0.689453 8.70703 0.673828 7.50781V6.06055C0.673828 4.80664 0.890625 3.875 1.32422 3.26562C1.75781 2.65625 2.4375 2.35156 3.36328 2.35156C4.28125 2.35156 4.95703 2.64648 5.39062 3.23633C5.82422 3.82227 6.04688 4.72852 6.05859 5.95508V7.36133ZM4.97461 5.87891C4.97461 4.96094 4.8457 4.29297 4.58789 3.875C4.33008 3.45312 3.92188 3.24219 3.36328 3.24219C2.80859 3.24219 2.4043 3.45117 2.15039 3.86914C1.89648 4.28711 1.76562 4.92969 1.75781 5.79688V7.53125C1.75781 8.45312 1.89062 9.13477 2.15625 9.57617C2.42578 10.0137 2.83203 10.2324 3.375 10.2324C3.91016 10.2324 4.30664 10.0254 4.56445 9.61133C4.82617 9.19727 4.96289 8.54492 4.97461 7.6543V5.87891Z" fill="#B6BCBF"/>
<path d="M566.069 6.72266L566.502 2.46875H570.873V3.4707H567.422L567.164 5.79688C567.582 5.55078 568.057 5.42773 568.588 5.42773C569.366 5.42773 569.983 5.68555 570.44 6.20117C570.897 6.71289 571.125 7.40625 571.125 8.28125C571.125 9.16016 570.887 9.85352 570.411 10.3613C569.938 10.8652 569.276 11.1172 568.424 11.1172C567.67 11.1172 567.055 10.9082 566.579 10.4902C566.102 10.0723 565.83 9.49414 565.764 8.75586H566.789C566.856 9.24414 567.03 9.61328 567.311 9.86328C567.592 10.1094 567.963 10.2324 568.424 10.2324C568.928 10.2324 569.323 10.0605 569.608 9.7168C569.897 9.37305 570.041 8.89844 570.041 8.29297C570.041 7.72266 569.885 7.26562 569.573 6.92188C569.264 6.57422 568.852 6.40039 568.336 6.40039C567.864 6.40039 567.493 6.50391 567.223 6.71094L566.936 6.94531L566.069 6.72266ZM578.059 7.36133C578.059 8.63086 577.842 9.57422 577.408 10.1914C576.975 10.8086 576.297 11.1172 575.375 11.1172C574.465 11.1172 573.791 10.8164 573.354 10.2148C572.916 9.60938 572.689 8.70703 572.674 7.50781V6.06055C572.674 4.80664 572.891 3.875 573.324 3.26562C573.758 2.65625 574.438 2.35156 575.363 2.35156C576.281 2.35156 576.957 2.64648 577.391 3.23633C577.824 3.82227 578.047 4.72852 578.059 5.95508V7.36133ZM576.975 5.87891C576.975 4.96094 576.846 4.29297 576.588 3.875C576.33 3.45312 575.922 3.24219 575.363 3.24219C574.809 3.24219 574.404 3.45117 574.15 3.86914C573.896 4.28711 573.766 4.92969 573.758 5.79688V7.53125C573.758 8.45312 573.891 9.13477 574.156 9.57617C574.426 10.0137 574.832 10.2324 575.375 10.2324C575.91 10.2324 576.307 10.0254 576.564 9.61133C576.826 9.19727 576.963 8.54492 576.975 7.6543V5.87891Z" fill="#B6BCBF"/>
<path d="M286.161 11H280.571V10.2207L283.524 6.93945C283.961 6.44336 284.262 6.04102 284.426 5.73242C284.594 5.41992 284.678 5.09766 284.678 4.76562C284.678 4.32031 284.543 3.95508 284.274 3.66992C284.004 3.38477 283.645 3.24219 283.196 3.24219C282.657 3.24219 282.237 3.39648 281.936 3.70508C281.639 4.00977 281.491 4.43555 281.491 4.98242H280.407C280.407 4.19727 280.659 3.5625 281.163 3.07812C281.67 2.59375 282.348 2.35156 283.196 2.35156C283.989 2.35156 284.616 2.56055 285.077 2.97852C285.538 3.39258 285.768 3.94531 285.768 4.63672C285.768 5.47656 285.233 6.47656 284.163 7.63672L281.877 10.1152H286.161V11ZM288.207 6.72266L288.641 2.46875H293.012V3.4707H289.561L289.303 5.79688C289.721 5.55078 290.195 5.42773 290.727 5.42773C291.504 5.42773 292.121 5.68555 292.578 6.20117C293.035 6.71289 293.264 7.40625 293.264 8.28125C293.264 9.16016 293.025 9.85352 292.549 10.3613C292.076 10.8652 291.414 11.1172 290.562 11.1172C289.809 11.1172 289.193 10.9082 288.717 10.4902C288.24 10.0723 287.969 9.49414 287.902 8.75586H288.928C288.994 9.24414 289.168 9.61328 289.449 9.86328C289.73 10.1094 290.102 10.2324 290.562 10.2324C291.066 10.2324 291.461 10.0605 291.746 9.7168C292.035 9.37305 292.18 8.89844 292.18 8.29297C292.18 7.72266 292.023 7.26562 291.711 6.92188C291.402 6.57422 290.99 6.40039 290.475 6.40039C290.002 6.40039 289.631 6.50391 289.361 6.71094L289.074 6.94531L288.207 6.72266Z" fill="#B6BCBF"/>
<path d="M854.079 3.07812L850.545 11H849.409L852.93 3.35938H848.313V2.46875H854.079V3.07812ZM856.207 6.72266L856.641 2.46875H861.012V3.4707H857.561L857.303 5.79688C857.721 5.55078 858.195 5.42773 858.727 5.42773C859.504 5.42773 860.121 5.68555 860.578 6.20117C861.035 6.71289 861.264 7.40625 861.264 8.28125C861.264 9.16016 861.025 9.85352 860.549 10.3613C860.076 10.8652 859.414 11.1172 858.562 11.1172C857.809 11.1172 857.193 10.9082 856.717 10.4902C856.24 10.0723 855.969 9.49414 855.902 8.75586H856.928C856.994 9.24414 857.168 9.61328 857.449 9.86328C857.73 10.1094 858.102 10.2324 858.562 10.2324C859.066 10.2324 859.461 10.0605 859.746 9.7168C860.035 9.37305 860.18 8.89844 860.18 8.29297C860.18 7.72266 860.023 7.26562 859.711 6.92188C859.402 6.57422 858.99 6.40039 858.475 6.40039C858.002 6.40039 857.631 6.50391 857.361 6.71094L857.074 6.94531L856.207 6.72266Z" fill="#B6BCBF"/>
<path d="M1109.86 11H1108.77V3.77539L1106.58 4.57812V3.59375L1109.69 2.42773H1109.86V11ZM1118.78 7.36133C1118.78 8.63086 1118.57 9.57422 1118.13 10.1914C1117.7 10.8086 1117.02 11.1172 1116.1 11.1172C1115.19 11.1172 1114.51 10.8164 1114.08 10.2148C1113.64 9.60938 1113.41 8.70703 1113.4 7.50781V6.06055C1113.4 4.80664 1113.61 3.875 1114.05 3.26562C1114.48 2.65625 1115.16 2.35156 1116.09 2.35156C1117 2.35156 1117.68 2.64648 1118.11 3.23633C1118.55 3.82227 1118.77 4.72852 1118.78 5.95508V7.36133ZM1117.7 5.87891C1117.7 4.96094 1117.57 4.29297 1117.31 3.875C1117.05 3.45312 1116.65 3.24219 1116.09 3.24219C1115.53 3.24219 1115.13 3.45117 1114.87 3.86914C1114.62 4.28711 1114.49 4.92969 1114.48 5.79688V7.53125C1114.48 8.45312 1114.61 9.13477 1114.88 9.57617C1115.15 10.0137 1115.56 10.2324 1116.1 10.2324C1116.63 10.2324 1117.03 10.0254 1117.29 9.61133C1117.55 9.19727 1117.69 8.54492 1117.7 7.6543V5.87891ZM1125.92 7.36133C1125.92 8.63086 1125.7 9.57422 1125.27 10.1914C1124.84 10.8086 1124.16 11.1172 1123.24 11.1172C1122.33 11.1172 1121.65 10.8164 1121.22 10.2148C1120.78 9.60938 1120.55 8.70703 1120.54 7.50781V6.06055C1120.54 4.80664 1120.75 3.875 1121.19 3.26562C1121.62 2.65625 1122.3 2.35156 1123.22 2.35156C1124.14 2.35156 1124.82 2.64648 1125.25 3.23633C1125.69 3.82227 1125.91 4.72852 1125.92 5.95508V7.36133ZM1124.84 5.87891C1124.84 4.96094 1124.71 4.29297 1124.45 3.875C1124.19 3.45312 1123.78 3.24219 1123.22 3.24219C1122.67 3.24219 1122.27 3.45117 1122.01 3.86914C1121.76 4.28711 1121.63 4.92969 1121.62 5.79688V7.53125C1121.62 8.45312 1121.75 9.13477 1122.02 9.57617C1122.29 10.0137 1122.69 10.2324 1123.24 10.2324C1123.77 10.2324 1124.17 10.0254 1124.43 9.61133C1124.69 9.19727 1124.82 8.54492 1124.84 7.6543V5.87891Z" fill="#B6BCBF"/>
</svg>
